Coordinates
nRows=145
nColumns=2
inDegrees=yes
endheader
time	ankle_angle_r	
4.36565	  9.734766	
4.43722	  9.770443	
4.50878	  9.697429	
4.58035	  9.694152	
4.65192	  9.778982	
4.72349	  9.778451	
4.79506	  9.718164	
4.86662	  9.723355	
4.93819	  9.722868	
5.00976	  9.707813	
5.08133	  9.719570	
5.1529	  9.720789	
5.22446	  9.729388	
5.29603	  9.692977	
5.3676	  9.654666	
5.43917	  9.717991	
5.51074	  9.784673	
5.5823	  9.744675	
5.65387	  9.690070	
5.72544	  9.750956	
5.79701	  9.806560	
5.86858	  9.767253	
5.94014	  9.743768	
6.01171	  9.788883	
6.08328	  9.809890	
6.15485	  9.732207	
6.22642	  9.717663	
6.29798	  9.796873	
6.36955	  9.799728	
6.44112	  9.748216	
6.51269	  9.761986	
6.58426	  9.845252	
6.65582	  9.848444	
6.72739	  9.773838	
6.79896	  9.767735	
6.87053	  9.809524	
6.9421	  9.787059	
7.01366	  9.713537	
7.08523	  9.751203	
7.1568	  9.820826	
7.22837	  9.761618	
7.29994	  9.683014	
7.3715	  9.685334	
7.44307	  9.741420	
7.51464	  9.737266	
7.58621	  9.688660	
7.65778	  9.698879	
7.72934	  9.724408	
7.80091	  9.721175	
7.87248	  9.721834	
7.94405	  9.781752	
8.01562	  9.823795	
8.08718	  9.777511	
8.15875	  9.750746	
8.23032	  9.812297	
8.30189	  9.847050	
8.37346	  9.755978	
8.44502	  9.723693	
8.51659	  9.808746	
8.58816	  9.830040	
8.65973	  9.783311	
8.7313	  9.767386	
8.80286	  9.827585	
8.87443	  9.853461	
8.946	  9.778373	
9.01757	  9.735957	
9.08914	  9.780253	
9.1607	  9.786430	
9.23227	  9.711422	
9.30384	  9.725725	
9.37541	  9.782799	
9.44698	  9.755215	
9.51854	  9.709239	
9.59011	  9.675780	
9.66168	  9.737332	
9.73325	  9.779409	
9.80482	  9.700241	
9.87638	  9.703788	
9.94795	  9.765134	
10.0195	  9.736824	
10.0911	  9.667177	
10.1627	  9.704025	
10.2342	  9.812696	
10.3058	  9.812797	
10.3774	  9.749307	
10.4489	  9.781255	
10.5205	  9.837054	
10.5921	  9.759769	
10.6636	  9.723703	
10.7352	  9.823951	
10.8068	  9.844153	
10.8783	  9.767888	
10.9499	  9.755882	
11.0215	  9.837625	
11.093	  9.855303	
11.1646	  9.782739	
11.2362	  9.757071	
11.3077	  9.806370	
11.3793	  9.809061	
11.4509	  9.711795	
11.5224	  9.719838	
11.594	  9.781184	
11.6656	  9.728932	
11.7372	  9.689308	
11.8087	  9.714036	
11.8803	  9.786568	
11.9519	  9.789456	
12.0234	  9.700141	
12.095	  9.689405	
12.1666	  9.732068	
12.2381	  9.700514	
12.3097	  9.627824	
12.3813	  9.689573	
12.4528	  9.786361	
12.5244	  9.737348	
12.596	  9.690364	
12.6675	  9.758291	
12.7391	  9.803074	
12.8107	  9.684113	
12.8822	  9.616741	
12.9538	  9.721073	
13.0254	  9.756583	
13.0969	  9.725990	
13.1685	  9.749853	
13.2401	  9.775108	
13.3116	  9.760393	
13.3832	  9.736921	
13.4548	  9.737026	
13.5264	  9.803717	
13.5979	  9.821852	
13.6695	  9.669265	
13.7411	  9.651663	
13.8126	  9.803540	
13.8842	  9.777728	
13.9558	  9.696263	
14.0273	  9.746159	
14.0989	  9.793848	
14.1705	  9.757437	
14.242	  9.721535	
14.3136	  9.746410	
14.3852	  9.767325	
14.4567	  9.737274	
14.5283	  9.695235	
14.5999	  9.709336	
14.6714	  9.780742	
